<?xml version="1.0" standalone="no"?>
<svg xmlns="http://www.w3.org/2000/svg" viewBox="0 0 194.6 29" width="194.6" height="29"><path fill="#ff0000" fill-rule="nonzero" d="M4.70 17.21L4.70 17.21Q3.41 17.21 2.34 16.55Q1.27 15.89 0.64 14.80Q0 13.70 0 12.38L0 12.38L0 11.28Q0 11.16 0.12 11.16L0.12 11.16L2.81 11.16Q2.90 11.16 2.90 11.28L2.90 11.28L2.90 12.38Q2.90 13.18 3.43 13.74Q3.96 14.30 4.70 14.30L4.70 14.30Q5.45 14.30 5.98 13.73Q6.50 13.15 6.50 12.38L6.50 12.38Q6.50 11.50 5.35 10.85L5.35 10.85Q4.97 10.63 4.15 10.18Q3.34 9.72 2.62 9.31L2.62 9.31Q1.30 8.54 0.66 7.38Q0.02 6.22 0.02 4.75L0.02 4.75Q0.02 3.41 0.67 2.34Q1.32 1.27 2.39 0.65Q3.46 0.02 4.70 0.02L4.70 0.02Q5.98 0.02 7.04 0.66Q8.11 1.30 8.75 2.36Q9.38 3.43 9.38 4.75L9.38 4.75L9.38 6.72Q9.38 6.82 9.29 6.82L9.29 6.82L6.60 6.82Q6.50 6.82 6.50 6.72L6.50 6.72L6.48 4.75Q6.48 3.91 5.95 3.38Q5.42 2.86 4.70 2.86L4.70 2.86Q3.96 2.86 3.43 3.42Q2.90 3.98 2.90 4.75L2.90 4.75Q2.90 5.54 3.24 6.07Q3.58 6.60 4.46 7.08L4.46 7.08Q4.58 7.15 4.93 7.33Q5.28 7.51 5.69 7.74Q6.10 7.97 6.42 8.14Q6.74 8.30 6.82 8.35L6.82 8.35Q8.02 9.02 8.71 10.00Q9.41 10.97 9.41 12.38L9.41 12.38Q9.41 13.75 8.77 14.84Q8.14 15.94 7.07 16.57Q6 17.21 4.70 17.21ZM16.08 16.97L13.37 16.97Q13.27 16.97 13.27 16.85L13.27 16.85L13.27 3.17L10.15 3.17Q10.03 3.17 10.03 3.05L10.03 3.05L10.06 0.36Q10.06 0.26 10.15 0.26L10.15 0.26L19.27 0.26Q19.39 0.26 19.39 0.36L19.39 0.36L19.39 3.05Q19.39 3.17 19.30 3.17L19.30 3.17L16.15 3.17L16.18 16.85Q16.18 16.97 16.08 16.97L16.08 16.97ZM23.38 16.97L20.66 16.97Q20.57 16.97 20.57 16.85L20.57 16.85L20.62 0.36Q20.62 0.26 20.71 0.26L20.71 0.26L25.56 0.26Q26.86 0.26 27.95 0.90Q29.04 1.54 29.69 2.60Q30.34 3.67 30.34 5.02L30.34 5.02Q30.34 5.90 30.07 6.61Q29.81 7.32 29.45 7.81Q29.09 8.30 28.80 8.54L28.80 8.54Q30.10 9.98 30.10 11.93L30.10 11.93L30.12 16.85Q30.12 16.97 30 16.97L30 16.97L27.29 16.97Q27.19 16.97 27.19 16.90L27.19 16.90L27.19 11.93Q27.19 11.06 26.58 10.43Q25.97 9.79 25.08 9.79L25.08 9.79L23.50 9.79L23.47 16.85Q23.47 16.97 23.38 16.97L23.38 16.97ZM23.50 3.14L23.50 6.91L25.56 6.91Q26.30 6.91 26.88 6.36Q27.46 5.81 27.46 5.02L27.46 5.02Q27.46 4.25 26.89 3.70Q26.33 3.14 25.56 3.14L25.56 3.14L23.50 3.14ZM39.98 16.97L32.23 16.97Q32.14 16.97 32.14 16.85L32.14 16.85L32.16 0.36Q32.16 0.26 32.26 0.26L32.26 0.26L39.96 0.26Q40.06 0.26 40.06 0.38L40.06 0.38L40.06 3.07Q40.06 3.17 39.96 3.17L39.96 3.17L35.04 3.17L35.04 6.91L39.96 6.91Q40.06 6.91 40.06 7.01L40.06 7.01L40.08 9.72Q40.08 9.82 39.98 9.82L39.98 9.82L35.04 9.82L35.04 14.02L39.98 14.02Q40.08 14.02 40.08 14.14L40.08 14.14L40.08 16.87Q40.08 16.97 39.98 16.97L39.98 16.97ZM44.83 16.97L42.43 16.97Q42.24 16.97 42.24 16.80L42.24 16.80L42.22 0.46Q42.22 0.26 42.41 0.26L42.41 0.26L44.57 0.26L48.62 9.72L48.50 0.46Q48.50 0.26 48.72 0.26L48.72 0.26L51.10 0.26Q51.24 0.26 51.24 0.46L51.24 0.46L51.26 16.82Q51.26 16.97 51.14 16.97L51.14 16.97L49.03 16.97L44.88 8.14L45.05 16.78Q45.05 16.97 44.83 16.97L44.83 16.97ZM57.74 17.21L57.74 17.21Q56.45 17.21 55.39 16.56Q54.34 15.91 53.70 14.82Q53.06 13.73 53.06 12.38L53.06 12.38L53.06 4.78Q53.06 3.48 53.70 2.39Q54.34 1.30 55.40 0.65Q56.47 0 57.74 0L57.74 0Q59.06 0 60.13 0.64Q61.20 1.27 61.82 2.35Q62.45 3.43 62.45 4.78L62.45 4.78L62.45 5.88Q62.45 5.98 62.33 5.98L62.33 5.98L59.64 5.98Q59.54 5.98 59.54 5.88L59.54 5.88L59.54 4.97Q59.54 4.06 59.03 3.46Q58.51 2.86 57.74 2.86L57.74 2.86Q57.05 2.86 56.51 3.43Q55.97 4.01 55.97 4.78L55.97 4.78L55.97 12.38Q55.97 13.18 56.50 13.74Q57.02 14.30 57.74 14.30L57.74 14.30Q58.51 14.30 59.03 13.75Q59.54 13.20 59.54 12.38L59.54 12.38L59.54 11.21L57.86 11.21Q57.74 11.21 57.74 11.09L57.74 11.09L57.74 8.40Q57.74 8.28 57.86 8.28L57.86 8.28L62.35 8.28Q62.45 8.28 62.45 8.40L62.45 8.40L62.45 12.38Q62.45 13.73 61.81 14.82Q61.18 15.91 60.12 16.56Q59.06 17.21 57.74 17.21ZM66.96 16.97L64.25 16.97Q64.15 16.97 64.15 16.85L64.15 16.85L64.18 0.36Q64.18 0.26 64.30 0.26L64.30 0.26L66.96 0.26Q67.08 0.26 67.08 0.36L67.08 0.36L67.06 6.89L70.66 6.89L70.66 0.36Q70.66 0.26 70.75 0.26L70.75 0.26L73.42 0.26Q73.54 0.26 73.54 0.36L73.54 0.36L73.58 16.85Q73.58 16.97 73.46 16.97L73.46 16.97L70.78 16.97Q70.66 16.97 70.66 16.85L70.66 16.85L70.66 9.79L67.06 9.79L67.06 16.85Q67.06 16.97 66.96 16.97L66.96 16.97ZM80.66 16.97L77.95 16.97Q77.86 16.97 77.86 16.85L77.86 16.85L77.86 3.17L74.74 3.17Q74.62 3.17 74.62 3.05L74.62 3.05L74.64 0.36Q74.64 0.26 74.74 0.26L74.74 0.26L83.86 0.26Q83.98 0.26 83.98 0.36L83.98 0.36L83.98 3.05Q83.98 3.17 83.88 3.17L83.88 3.17L80.74 3.17L80.76 16.85Q80.76 16.97 80.66 16.97L80.66 16.97ZM87.96 16.97L85.25 16.97Q85.15 16.97 85.15 16.85L85.15 16.85L85.20 0.38Q85.20 0.26 85.30 0.26L85.30 0.26L87.98 0.26Q88.08 0.26 88.08 0.38L88.08 0.38L88.08 6.07L91.85 0.36Q91.92 0.26 92.02 0.26L92.02 0.26L94.78 0.26Q94.87 0.26 94.82 0.36L94.82 0.36L90.67 6.98L95.33 16.87Q95.38 16.97 95.21 16.97L95.21 16.97L92.28 16.97Q92.16 16.97 92.14 16.87L92.14 16.87L88.90 9.82L88.06 11.14L88.06 16.85Q88.06 16.97 87.96 16.97L87.96 16.97ZM104.26 16.97L96.50 16.97Q96.41 16.97 96.41 16.85L96.41 16.85L96.43 0.36Q96.43 0.26 96.53 0.26L96.53 0.26L104.23 0.26Q104.33 0.26 104.33 0.38L104.33 0.38L104.33 3.07Q104.33 3.17 104.23 3.17L104.23 3.17L99.31 3.17L99.31 6.91L104.23 6.91Q104.33 6.91 104.33 7.01L104.33 7.01L104.35 9.72Q104.35 9.82 104.26 9.82L104.26 9.82L99.31 9.82L99.31 14.02L104.26 14.02Q104.35 14.02 104.35 14.14L104.35 14.14L104.35 16.87Q104.35 16.97 104.26 16.97L104.26 16.97ZM114.34 16.97L106.58 16.97Q106.49 16.97 106.49 16.85L106.49 16.85L106.51 0.36Q106.51 0.26 106.61 0.26L106.61 0.26L114.31 0.26Q114.41 0.26 114.41 0.38L114.41 0.38L114.41 3.07Q114.41 3.17 114.31 3.17L114.31 3.17L109.39 3.17L109.39 6.91L114.31 6.91Q114.41 6.91 114.41 7.01L114.41 7.01L114.43 9.72Q114.43 9.82 114.34 9.82L114.34 9.82L109.39 9.82L109.39 14.02L114.34 14.02Q114.43 14.02 114.43 14.14L114.43 14.14L114.43 16.87Q114.43 16.97 114.34 16.97L114.34 16.97ZM119.38 16.97L116.69 16.97Q116.57 16.97 116.57 16.85L116.57 16.85L116.62 0.36Q116.62 0.26 116.71 0.26L116.71 0.26L121.32 0.26Q123.53 0.26 124.81 1.61Q126.10 2.95 126.10 5.26L126.10 5.26Q126.10 6.96 125.42 8.21Q124.75 9.46 123.67 10.13Q122.59 10.80 121.32 10.80L121.32 10.80L119.50 10.80L119.50 16.85Q119.50 16.97 119.38 16.97L119.38 16.97ZM119.50 3.14L119.50 7.90L121.32 7.90Q122.09 7.90 122.65 7.16Q123.22 6.43 123.22 5.26L123.22 5.26Q123.22 4.32 122.71 3.72Q122.21 3.12 121.32 3.12L121.32 3.12L119.50 3.14ZM135.58 16.97L127.82 16.97Q127.73 16.97 127.73 16.85L127.73 16.85L127.75 0.36Q127.75 0.26 127.85 0.26L127.85 0.26L135.55 0.26Q135.65 0.26 135.65 0.38L135.65 0.38L135.65 3.07Q135.65 3.17 135.55 3.17L135.55 3.17L130.63 3.17L130.63 6.91L135.55 6.91Q135.65 6.91 135.65 7.01L135.65 7.01L135.67 9.72Q135.67 9.82 135.58 9.82L135.58 9.82L130.63 9.82L130.63 14.02L135.58 14.02Q135.67 14.02 135.67 14.14L135.67 14.14L135.67 16.87Q135.67 16.97 135.58 16.97L135.58 16.97ZM140.62 16.97L137.90 16.97Q137.81 16.97 137.81 16.85L137.81 16.85L137.86 0.36Q137.86 0.26 137.95 0.26L137.95 0.26L142.80 0.26Q144.10 0.26 145.19 0.90Q146.28 1.54 146.93 2.60Q147.58 3.67 147.58 5.02L147.58 5.02Q147.58 5.90 147.31 6.61Q147.05 7.32 146.69 7.81Q146.33 8.30 146.04 8.54L146.04 8.54Q147.34 9.98 147.34 11.93L147.34 11.93L147.36 16.85Q147.36 16.97 147.24 16.97L147.24 16.97L144.53 16.97Q144.43 16.97 144.43 16.90L144.43 16.90L144.43 11.93Q144.43 11.06 143.82 10.43Q143.21 9.79 142.32 9.79L142.32 9.79L140.74 9.79L140.71 16.85Q140.71 16.97 140.62 16.97L140.62 16.97ZM140.74 3.14L140.74 6.91L142.80 6.91Q143.54 6.91 144.12 6.36Q144.70 5.81 144.70 5.02L144.70 5.02Q144.70 4.25 144.13 3.70Q143.57 3.14 142.80 3.14L142.80 3.14L140.74 3.14Z" transform="translate(0, 5.896)"></path><line x1="156.57600000000002" y1="2%" x2="156.57600000000002" y2="98%" stroke="#ff0000" stroke-linecap="round"></line><g fill="#ececec" color="#ececec" transform="translate(165.57600000000002 0) scale(0.58)"><svg width="50.0" height="50.0" x="0.0" y="0.0" viewBox="0 0 50 50"><path fill="currentColor" fill-rule="evenodd" d="M25 0l25 25-25 25L0 25 25 0zm0 8.333L8.333 25 25 41.667 41.667 25 25 8.333zm0 8.334L33.333 25 25 33.333 16.667 25 25 16.667z"></path></svg></g></svg>